<?xml version="1.0" encoding="iso-8859-1"?>
<!-- Generator: Adobe Illustrator 19.0.0, SVG Export Plug-In . SVG Version: 6.00 Build 0)  -->
<svg version="1.1" id="Capa_1" xmlns="http://www.w3.org/2000/svg" xmlns:xlink="http://www.w3.org/1999/xlink" x="0px" y="0px"
	 viewBox="0 0 512 512" style="enable-background:new 0 0 512 512;" xml:space="preserve">
<path style="fill:#26ABFF;" d="M451.017,247.231c-66.15,0-119.967-53.817-119.967-119.967V8.75h-65.211
	c-3.298,1.172-6.559,2.449-9.768,3.849l-89.975,390.415L512,343.03v-95.799H451.017z"/>
<path style="fill:#4CBEFF;" d="M220.264,34.646L51.184,175.154c-8.841,7.347-22.99,12.094-36.048,12.094H0.14V343.03l255.93,59.984
	V12.599C243.229,18.196,231.155,25.596,220.264,34.646z"/>
<path style="fill:#71D1FE;" d="M442.019,0.07h-69.981l69.981,122.363c0,19.325,15.666,34.99,34.99,34.99S512,141.757,512,122.433
	V70.051C512,31.401,480.669,0.07,442.019,0.07z"/>
<path style="fill:#97E4FD;" d="M372.038,0.07l-64.364,0.244l64.364,122.118c0,19.325,15.666,34.99,34.99,34.99
	c19.325,0,34.99-15.666,34.99-34.99V70.051C442.019,31.401,410.688,0.07,372.038,0.07z"/>
<path style="fill:#BCF7FC;" d="M307.673,0.314c-14.335,0.806-28.427,3.668-41.839,8.433c21.592,11.916,36.223,34.897,36.223,61.304
	v52.382c0,19.325,15.666,34.99,34.99,34.99c19.325,0,34.99-15.666,34.99-34.99V70.051C372.038,33.294,343.694,3.177,307.673,0.314z"
	/>
<path style="fill:#1C81B9;" d="M195.946,478.885l59.984-153.012c14.236,10.765,31.962,17.157,51.186,17.157
	s36.95-6.392,51.186-17.157c14.236,10.765,31.962,17.157,51.186,17.157c19.224,0,36.95-6.392,51.186-17.157
	c14.236,10.765,31.962,17.157,51.186,17.157v93.029L195.946,478.885z"/>
<path style="fill:#2196DC;" d="M255.93,478.885V325.873c-14.236,10.765-31.962,17.157-51.186,17.157s-36.95-6.392-51.186-17.157
	c-14.236,10.765-31.962,17.157-51.186,17.157s-36.95-6.392-51.186-17.157C36.95,336.638,19.224,343.03,0,343.03v93.029
	L255.93,478.885z"/>
<path style="fill:#093F61;" d="M255.93,511.93l-39.989-46.514l39.989-46.514c14.236,10.765,31.962,17.157,51.186,17.157
	s36.95-6.392,51.186-17.157c14.236,10.765,31.962,17.157,51.186,17.157c19.224,0,36.95-6.392,51.186-17.157
	c14.236,10.765,31.962,17.157,51.186,17.157v75.871L255.93,511.93L255.93,511.93z"/>
<path style="fill:#1C81B9;" d="M255.93,511.93v-93.029c-14.236,10.765-31.962,17.157-51.186,17.157s-36.95-6.392-51.186-17.157
	c-14.236,10.765-31.962,17.157-51.186,17.157s-36.95-6.392-51.186-17.157C36.95,429.667,19.224,436.059,0,436.059v75.871H255.93z"/>
<g>
</g>
<g>
</g>
<g>
</g>
<g>
</g>
<g>
</g>
<g>
</g>
<g>
</g>
<g>
</g>
<g>
</g>
<g>
</g>
<g>
</g>
<g>
</g>
<g>
</g>
<g>
</g>
<g>
</g>
</svg>
